<svg width="16" height="16" viewBox="0 0 16 16" fill="none" xmlns="http://www.w3.org/2000/svg">
<path fill-rule="evenodd" clip-rule="evenodd" d="M5.62273 5.34325L1.91842 5.97993L1.86548 5.991C1.34674 6.11929 1.15146 6.76665 1.53343 7.1571L4.15351 9.83553L3.61851 13.5325L3.61286 13.5843C3.57409 14.1149 4.13412 14.5005 4.62644 14.26L8.00016 12.6117L11.3739 14.26L11.4217 14.2814C11.9177 14.482 12.4599 14.072 12.3818 13.5325L11.8465 9.83553L14.4669 7.1571L14.5032 7.11723C14.8469 6.71051 14.6219 6.07276 14.0819 5.97993L10.3772 5.34325L8.6231 2.03971C8.35883 1.5421 7.64149 1.5421 7.37723 2.03971L5.62273 5.34325Z" fill="#FFC61A"/>
</svg>
